# xmcd CD database file
#
# Track frame offsets:
#	150
#	19215
#	43057
#	56892
#	70740
#	96821
#	110077
#	129557
#	145014
#	157704
#	175847
#	190258
#	208016
#	226209
#	245636
#
# Disc length: 3545 seconds
#
# Revision: 0
# Processed by: cddbd v1.5.1PL2 Copyright (c) Steve Scherf et al.
# Submitted via: CDex 1.51
#
DISCID=d20dd70f
DTITLE=Varios - Fiesta Caribeña Cd 2
DYEAR=1900
DGENRE=Salsa
TTITLE0=Kolé - Me Sacaste Los Pies
TTITLE1=Chaney - Chiquitita
TTITLE2=Los Pika Pika - El Chiflidito
TTITLE3=Varón 7 - Eva María
TTITLE4=Chaney - Cada Cosa En Su Lugar
TTITLE5=Grupo Anhelo - Quien Será
TTITLE6=Kolé - No Es La Misma De Antes
TTITLE7=Varón 7 - Vuelve Mi Amor
TTITLE8=Angélica Y La Tribu - Si Nos Amamos
TTITLE9=Kolé - El Kan Kolé
TTITLE10=Los Pika Pika - Zapatitos
TTITLE11=Chaney - Esta Noche Te Voy A Estrenar
TTITLE12=Fernando Villaloza - Dominicano Soy
TTITLE13=Kolé - Mi Soledad Sin Tí
TTITLE14=Chaney - Vamos A Darnos Tiempo
EXTD=
EXTT0=
EXTT1=
EXTT2=
EXTT3=
EXTT4=
EXTT5=
EXTT6=
EXTT7=
EXTT8=
EXTT9=
EXTT10=
EXTT11=
EXTT12=
EXTT13=
EXTT14=
PLAYORDER=
